<?xml version="1.0" encoding="UTF-8"?> <svg xmlns="http://www.w3.org/2000/svg" width="383" height="325" viewBox="0 0 383 325"><defs><linearGradient id="a" x1="5.868%" x2="98.275%" y1="97.224%" y2="14.852%"><stop offset="0%" stop-color="#793D8F"></stop><stop offset="100%" stop-color="#E9515B"></stop></linearGradient></defs><g fill="none" fill-rule="evenodd"><path fill="#F1EBF3" d="M300.477 214.353c3.199-15.284 2.697-32.196 5.156-48.067 3.103-20.026 10.413-35.1 17.563-44.456 7.15-9.357 14.6-14.714 21.678-24.859 3.06-4.376 6.64-12.666 6.133-20.691-.176-2.783-.841-4.787-1.5-6.67-13.483-38.324-32.804-60.402-54.258-62.012-22.693-1.69-47.24 18.78-69.568 13.787-28.797-6.42-108.273-25.78-121.23-17.135-19.053 12.702-37.637 12.225-56.288 15.098-14.005 2.158-30.557 9.83-40.746 44.14C.05 88.29-1.486 121.914 2.894 144.033c4.38 22.119 64.561 82.88 88.027 89.824 13.412 3.99 53.643-4.864 82.935-4.7 54.06.304 91.108 10.168 98.565 4.605 6.012-4.525 24.482-2.366 28.056-19.41z"></path><path fill="#DCD2CD" d="M326.353 211H96.646C88.59 211 82 204.388 82 196.307V40.694C82 32.612 88.59 26 96.646 26h229.707C334.41 26 341 32.612 341 40.694v155.613c0 8.081-6.591 14.693-14.647 14.693"></path><path fill="#FFF" d="M319.2 211H89.8c-8.14 0-14.8-6.65-14.8-14.777V37.777C75 29.649 81.66 23 89.8 23h229.4c8.14 0 14.8 6.65 14.8 14.777v158.446c0 8.128-6.66 14.777-14.8 14.777"></path><path fill="#ACAEAA" d="M118 37.5a2.5 2.5 0 1 1-5 0 2.5 2.5 0 0 1 5 0"></path><path fill="#929592" d="M116.113 40l.146-.012c-1.285-.308-2.227-1.252-2.227-2.384 0-1.341 1.317-2.427 2.968-2.489a3.773 3.773 0 0 0-.887-.115c-1.72 0-3.113 1.12-3.113 2.5s1.394 2.5 3.113 2.5"></path><path fill="#ACAEAA" d="M176 37.5a2.5 2.5 0 1 1-5 0 2.5 2.5 0 0 1 5 0"></path><path fill="#929592" d="M173.113 40l.146-.012c-1.285-.308-2.227-1.252-2.227-2.384 0-1.341 1.317-2.427 2.968-2.489a3.773 3.773 0 0 0-.887-.115c-1.72 0-3.113 1.12-3.113 2.5s1.394 2.5 3.113 2.5"></path><path fill="#ACAEAA" d="M232 37.5a2.5 2.5 0 1 1-5 0 2.5 2.5 0 0 1 5 0"></path><path fill="#929592" d="M230.114 40l.145-.012c-1.285-.308-2.226-1.252-2.226-2.384 0-1.341 1.317-2.427 2.967-2.489a3.752 3.752 0 0 0-.886-.115c-1.72 0-3.114 1.12-3.114 2.5s1.394 2.5 3.114 2.5"></path><path fill="#ACAEAA" d="M291 37.5a2.5 2.5 0 1 1-5 0 2.5 2.5 0 0 1 5 0"></path><path fill="#929592" d="M289.113 40l.146-.012c-1.284-.308-2.227-1.252-2.227-2.384 0-1.341 1.317-2.427 2.968-2.489a3.766 3.766 0 0 0-.887-.115c-1.718 0-3.113 1.12-3.113 2.5s1.395 2.5 3.113 2.5"></path><path fill="#CACFC7" d="M116.016 11.621c6.617 0 12.025 5.213 12.36 11.742H131C130.661 15.388 124.08 9 116.016 9 107.736 9 101 15.728 101 24c0 8.27 6.736 15 15.016 15a1.311 1.311 0 1 0 0-2.621c-6.833 0-12.392-5.553-12.392-12.38 0-6.826 5.559-12.378 12.392-12.378M173.016 11.621c6.617 0 12.025 5.213 12.36 11.742H188C187.661 15.388 181.08 9 173.016 9 164.736 9 158 15.728 158 24c0 8.27 6.736 15 15.016 15a1.311 1.311 0 1 0 0-2.621c-6.833 0-12.392-5.553-12.392-12.38 0-6.826 5.559-12.378 12.392-12.378M230.016 11.621c6.617 0 12.025 5.213 12.36 11.742H245C244.662 15.388 238.08 9 230.016 9 221.736 9 215 15.728 215 24c0 8.27 6.736 15 15.016 15a1.311 1.311 0 1 0 0-2.621c-6.833 0-12.392-5.553-12.392-12.38 0-6.826 5.559-12.378 12.392-12.378M289.017 11.62c6.617 0 12.025 5.214 12.36 11.743H304C303.663 15.388 297.08 9 289.017 9 280.737 9 274 15.728 274 24c0 8.27 6.736 15 15.017 15a1.311 1.311 0 1 0 0-2.621c-6.834 0-12.393-5.553-12.393-12.38 0-6.826 5.56-12.378 12.393-12.378"></path><path fill="#DCDED9" d="M324.344 73H92.656c-.36 0-.656-.225-.656-.5s.296-.5.656-.5h231.688c.361 0 .656.225.656.5s-.295.5-.656.5"></path><path fill="#DCDED9" d="M119 183.339V64.66c0-.364.225-.661.5-.661s.5.297.5.661V183.34c0 .363-.225.661-.5.661s-.5-.298-.5-.661M155 183.339V64.66c0-.364.225-.661.5-.661s.5.297.5.661V183.34c0 .363-.225.661-.5.661s-.5-.298-.5-.661M191 183.339V64.66c0-.364.225-.661.5-.661s.5.297.5.661V183.34c0 .363-.225.661-.5.661s-.5-.298-.5-.661M228 183.339V64.66c0-.364.225-.661.5-.661s.5.297.5.661V183.34c0 .363-.225.661-.5.661s-.5-.298-.5-.661M264 183.339V64.66c0-.364.225-.661.5-.661s.5.297.5.661V183.34c0 .363-.225.661-.5.661s-.5-.298-.5-.661M300 183.339V64.66c0-.364.225-.661.5-.661s.5.297.5.661V183.34c0 .363-.225.661-.5.661s-.5-.298-.5-.661"></path><path fill="#DCDED9" d="M324.344 100H92.656c-.36 0-.656-.225-.656-.5s.296-.5.656-.5h231.688c.361 0 .656.225.656.5s-.295.5-.656.5M324.344 125H92.656c-.36 0-.656-.225-.656-.5s.296-.5.656-.5h231.688c.361 0 .656.225.656.5s-.295.5-.656.5M324.344 153H92.656c-.36 0-.656-.225-.656-.5s.296-.5.656-.5h231.688c.361 0 .656.225.656.5s-.295.5-.656.5M324.344 178H92.656c-.36 0-.656-.225-.656-.5s.296-.5.656-.5h231.688c.361 0 .656.225.656.5s-.295.5-.656.5"></path><path fill="#ACAEAA" d="M112.79 68H97.21C95.994 68 95 66.875 95 65.5s.994-2.5 2.21-2.5h15.58c1.216 0 2.21 1.125 2.21 2.5s-.994 2.5-2.21 2.5M144.79 68h-15.58c-1.216 0-2.21-1.125-2.21-2.5s.994-2.5 2.21-2.5h15.58c1.216 0 2.21 1.125 2.21 2.5s-.994 2.5-2.21 2.5M181.79 68h-15.58c-1.216 0-2.21-1.125-2.21-2.5s.994-2.5 2.21-2.5h15.58c1.216 0 2.21 1.125 2.21 2.5s-.994 2.5-2.21 2.5M217.79 68h-15.58c-1.216 0-2.21-1.125-2.21-2.5s.994-2.5 2.21-2.5h15.58c1.216 0 2.21 1.125 2.21 2.5s-.994 2.5-2.21 2.5M253.79 68h-15.58c-1.216 0-2.21-1.125-2.21-2.5s.994-2.5 2.21-2.5h15.58c1.216 0 2.21 1.125 2.21 2.5s-.994 2.5-2.21 2.5M289.79 68h-15.58c-1.216 0-2.21-1.125-2.21-2.5s.994-2.5 2.21-2.5h15.58c1.216 0 2.21 1.125 2.21 2.5s-.994 2.5-2.21 2.5"></path><path fill="#DE4546" d="M321.79 68h-15.58c-1.216 0-2.21-1.125-2.21-2.5s.994-2.5 2.21-2.5h15.58c1.216 0 2.21 1.125 2.21 2.5s-.994 2.5-2.21 2.5"></path><path fill="#DCDED9" d="M150.792 82h-24.584c-.664 0-1.208-.45-1.208-1s.544-1 1.208-1h24.584c.664 0 1.208.45 1.208 1s-.544 1-1.208 1M150.792 87h-24.584c-.664 0-1.208-.45-1.208-1s.544-1 1.208-1h24.584c.664 0 1.208.45 1.208 1s-.544 1-1.208 1M140.723 91h-15.445c-.703 0-1.278-.45-1.278-1s.575-1 1.278-1h15.445c.703 0 1.277.45 1.277 1s-.574 1-1.277 1M222.793 108h-24.585c-.665 0-1.208-.45-1.208-1s.543-1 1.208-1h24.585c.663 0 1.207.45 1.207 1s-.544 1-1.207 1M222.793 113h-24.585c-.665 0-1.208-.45-1.208-1s.543-1 1.208-1h24.585c.663 0 1.207.45 1.207 1s-.544 1-1.207 1M212.723 118h-15.445c-.704 0-1.278-.45-1.278-1s.574-1 1.278-1h15.445c.703 0 1.277.45 1.277 1s-.574 1-1.277 1M186.792 162h-24.584c-.664 0-1.208-.45-1.208-1s.544-1 1.208-1h24.584c.664 0 1.208.45 1.208 1s-.544 1-1.208 1M186.792 167h-24.584c-.664 0-1.208-.45-1.208-1s.544-1 1.208-1h24.584c.664 0 1.208.45 1.208 1s-.544 1-1.208 1M176.723 172h-15.445c-.703 0-1.278-.45-1.278-1s.575-1 1.278-1h15.445c.703 0 1.277.45 1.277 1s-.574 1-1.277 1M115.792 136H91.208c-.665 0-1.208-.45-1.208-1s.543-1 1.208-1h24.584c.664 0 1.208.45 1.208 1s-.544 1-1.208 1M115.792 142H91.208c-.665 0-1.208-.45-1.208-1s.543-1 1.208-1h24.584c.664 0 1.208.45 1.208 1s-.544 1-1.208 1M258.793 138h-24.586c-.665 0-1.207-.45-1.207-1s.542-1 1.207-1h24.586c.663 0 1.207.45 1.207 1s-.544 1-1.207 1M258.793 142h-24.586c-.665 0-1.207-.45-1.207-1s.542-1 1.207-1h24.586c.663 0 1.207.45 1.207 1s-.544 1-1.207 1M258.793 84h-24.586c-.665 0-1.207-.45-1.207-1s.542-1 1.207-1h24.586c.663 0 1.207.45 1.207 1s-.544 1-1.207 1M258.793 89h-24.586c-.665 0-1.207-.45-1.207-1s.542-1 1.207-1h24.586c.663 0 1.207.45 1.207 1s-.544 1-1.207 1"></path><path fill="#4AAE4C" d="M145.444 106.55a1.925 1.925 0 0 0-2.696 0l-6.966 6.896-3.53-3.493a1.926 1.926 0 0 0-2.696 0 1.88 1.88 0 0 0 0 2.67l4.877 4.828c.371.366.86.55 1.349.549a1.91 1.91 0 0 0 1.349-.55l8.313-8.23a1.88 1.88 0 0 0 0-2.67M217.444 133.55a1.925 1.925 0 0 0-2.696 0l-6.967 6.896-3.529-3.493a1.926 1.926 0 0 0-2.697 0 1.882 1.882 0 0 0 0 2.67l4.878 4.828c.37.366.86.55 1.348.549a1.91 1.91 0 0 0 1.35-.55l8.313-8.23a1.88 1.88 0 0 0 0-2.67M145.444 159.55a1.926 1.926 0 0 0-2.697 0l-6.965 6.896-3.53-3.493a1.925 1.925 0 0 0-2.696 0 1.88 1.88 0 0 0 0 2.67l4.877 4.828c.371.366.86.55 1.349.549.489 0 .977-.183 1.348-.55l8.314-8.23a1.88 1.88 0 0 0 0-2.67M254.444 160.55a1.927 1.927 0 0 0-2.696 0l-6.966 6.896-3.53-3.494a1.928 1.928 0 0 0-2.697 0 1.882 1.882 0 0 0 0 2.67l4.879 4.828c.37.367.859.55 1.348.55.49 0 .977-.183 1.348-.55l8.314-8.23a1.88 1.88 0 0 0 0-2.67M181.444 80.55a1.926 1.926 0 0 0-2.696 0l-6.966 6.897-3.53-3.495a1.926 1.926 0 0 0-2.696 0 1.88 1.88 0 0 0 0 2.67l4.876 4.828c.372.366.86.55 1.35.55.488 0 .978-.184 1.348-.55l8.314-8.23a1.88 1.88 0 0 0 0-2.67M218.444 80.55a1.925 1.925 0 0 0-2.696 0l-6.966 6.897-3.53-3.495a1.927 1.927 0 0 0-2.697 0 1.882 1.882 0 0 0 0 2.67l4.879 4.828c.37.366.859.55 1.348.55.49 0 .977-.184 1.348-.55l8.314-8.23a1.88 1.88 0 0 0 0-2.67"></path><path fill="#DE4546" d="M286.633 169.633c-.49.49-1.29.49-1.78 0l-5.486-5.487a1.26 1.26 0 0 1 0-1.78c.49-.488 1.29-.488 1.78 0l5.486 5.488c.49.489.49 1.29 0 1.78"></path><path fill="#DE4546" d="M279.367 169.633c.49.49 1.29.49 1.78 0l5.486-5.487c.49-.489.49-1.29 0-1.78-.49-.488-1.29-.488-1.78 0l-5.486 5.488a1.26 1.26 0 0 0 0 1.78M317.633 143.633c-.489.49-1.29.49-1.78 0l-5.486-5.486a1.262 1.262 0 0 1 0-1.78 1.26 1.26 0 0 1 1.78 0l5.486 5.486c.49.49.49 1.29 0 1.78"></path><path fill="#DE4546" d="M310.367 143.633c.489.49 1.29.49 1.78 0l5.486-5.486c.49-.49.49-1.29 0-1.78a1.26 1.26 0 0 0-1.78 0l-5.486 5.486c-.49.49-.49 1.29 0 1.78M318.633 91.633c-.49.49-1.29.49-1.78 0l-5.486-5.486c-.49-.49-.49-1.291 0-1.78a1.262 1.262 0 0 1 1.78 0l5.486 5.486c.49.49.49 1.29 0 1.78"></path><path fill="#DE4546" d="M311.367 91.633c.49.49 1.29.49 1.78 0l5.486-5.486c.49-.49.49-1.291 0-1.78a1.263 1.263 0 0 0-1.78 0l-5.486 5.486c-.49.49-.49 1.29 0 1.78"></path><path fill="#DCDED9" d="M190.797 196h-71.594c-1.212 0-2.203-1.125-2.203-2.5s.991-2.5 2.203-2.5h71.594c1.212 0 2.203 1.125 2.203 2.5s-.991 2.5-2.203 2.5M165.812 204h-45.624c-1.204 0-2.188-1.125-2.188-2.5s.984-2.5 2.188-2.5h45.624c1.204 0 2.188 1.125 2.188 2.5s-.984 2.5-2.188 2.5"></path><path fill="#FE8D23" d="M66.059 254h-.118c-1.068 0-1.941-.86-1.941-1.91v-7.18c0-1.05.873-1.91 1.941-1.91h.118c1.067 0 1.941.86 1.941 1.91v7.18c0 1.05-.874 1.91-1.941 1.91"></path><path fill="#211E20" d="M63 249.334V256l19.375-.097c.676-.003.87-.915.252-1.187L68.502 249l-5.502.334"></path><path fill="#C1C5C1" d="M84.698 255.845H64.302c-.166 0-.302-.156-.302-.345 0-.19.136-.345.302-.345h20.396c.166 0 .302.155.302.345 0 .189-.136.345-.302.345"></path><path fill="#FE8D23" d="M7.281 235.117l-.052-.093c-.47-.845-.193-1.938.618-2.43l5.541-3.355c.81-.49 1.86-.201 2.331.644l.051.093c.472.844.194 1.938-.617 2.43l-5.542 3.355c-.81.49-1.859.2-2.33-.644"></path><path fill="#211E20" d="M9.363 230L3 233.484l10.724 17.196c.374.599 1.35.294 1.272-.396L12.7 234.723 9.363 230"></path><path fill="#C1C5C1" d="M13.43 251.852L3.042 234.447a.295.295 0 0 1 .11-.407.313.313 0 0 1 .418.108l10.388 17.405a.293.293 0 0 1-.11.407.31.31 0 0 1-.418-.108"></path><path fill="#F3C7AC" d="M90.462 134.435l-4.503 3.33c-.565.417-1.348.264-1.738-.34-.392-.605-.248-1.441.317-1.86l4.503-3.329c.565-.418 1.348-.266 1.739.338.39.606.248 1.442-.318 1.86"></path><path fill="#F3C7AC" d="M85.902 133.198l-1.936 3.323c-.244.417-.862.596-1.375.398-.515-.197-.735-.7-.492-1.116l1.936-3.324c.243-.417.862-.596 1.376-.399.512.197.733.7.49 1.118"></path><path fill="#B94772" d="M60.859 183L76 214.542 70.035 247h-7.8l2.753-28.8L37 183h23.859"></path><path fill="#D683A3" d="M56 182.377l-15.774 37.18L14.248 237 11 226.443l21.34-16.065L35.588 181 56 182.377"></path><path fill="#B94772" d="M71.515 140.652c1.827-.68 3.511-1.674 5.184-2.662l6.748-3.99c.748.875 1.474 1.77 2.175 2.683.187.244.38.512.378.817-.003.38-.307.686-.591.948-8.345 7.702-17.448 15.776-28.833 17.441-1.152.168-2.446.234-3.361-.468-.592-.453-.916-1.151-1.192-1.831a27.616 27.616 0 0 1-2.004-11.368c.021-.562.102-1.203.577-1.526.323-.22.746-.229 1.14-.21 6.732.338 13.068 2.664 19.779.166"></path><path fill="#770D35" d="M49.209 131s-18.73 13.365-14.62 53L62 183.54s-.457-45.627-12.791-52.54"></path><path fill="#770D35" d="M51 131.735a8.755 8.755 0 0 0-1.136-.735s-19.538 13.365-15.249 53l2.063-.033C32.968 149.587 47.18 134.99 51 131.735"></path><path fill="#FE8D23" d="M50.5 135c-3.575 0-6.5-3-6.5-6.666v-6.667C44 118 46.925 115 50.5 115s6.5 3 6.5 6.667v6.667C57 132 54.075 135 50.5 135"></path><path fill="#7E3E8F" d="M46.842 123.986c.562-1.612 1.725-3.432 3.44-3.29.848.07 1.587.633 2.43.738 1.079.134 2.085-.488 3.116-.828.928-.305 1.96-.403 2.737-.993 1.166-.885 1.345-2.53 1.42-3.984.024-.462.044-.943-.139-1.369-.452-1.056-1.848-1.268-3.004-1.26-3.818.028-7.63.79-11.16 2.233-.566.231-1.141.49-1.572.924-.387.391-.632.9-.843 1.407a16.547 16.547 0 0 0-1.177 8.069c.546 5.143 3.956.639 4.752-1.647"></path><path fill="#FE8D23" d="M47 124a1 1 0 1 1-2 0 1 1 0 0 1 2 0"></path><path fill="url(#a)" d="M169.038 138.863l-83.17 30.67c-3.922 1.446-8.267-.58-9.705-4.525L64.464 132.9c-1.438-3.947.576-8.318 4.498-9.764l83.17-30.669c3.922-1.447 8.267.58 9.705 4.525l11.699 32.109c1.438 3.946-.576 8.316-4.498 9.762" transform="translate(3)"></path><path fill="#FFFFFE" d="M153.323 109.999l-66.835 24.75c-2.109.781-4.467-.323-5.24-2.454-.773-2.13.32-4.513 2.43-5.294l66.834-24.75c2.109-.781 4.467.323 5.24 2.454.773 2.131-.32 4.513-2.43 5.294M158.322 121.999l-66.834 24.75c-2.108.781-4.467-.323-5.24-2.454-.773-2.132.32-4.514 2.43-5.294l66.833-24.75c2.11-.781 4.467.323 5.24 2.453.774 2.132-.32 4.514-2.429 5.295M140.35 140.983L95.434 157.75c-2.088.779-4.423-.323-5.188-2.45-.766-2.125.316-4.503 2.405-5.283l44.915-16.767c2.088-.779 4.423.323 5.188 2.449.765 2.126-.317 4.504-2.404 5.284"></path><path fill="#FE8D23" d="M93.893 168.144l-5.479.844c-.688.107-1.32-.512-1.405-1.373-.084-.862.41-1.652 1.098-1.759l5.479-.844c.687-.106 1.32.512 1.405 1.374.084.86-.41 1.653-1.098 1.758"></path><path fill="#FE8D23" d="M91.639 165.55l-3.182 2.277a.947.947 0 0 1-1.275-.17.837.837 0 0 1 .18-1.208l3.182-2.276a.943.943 0 0 1 1.273.17.834.834 0 0 1-.178 1.208"></path><path fill="#770D35" d="M72.27 161.956c1.756.67 3.606 1.072 5.458 1.418a99.866 99.866 0 0 0 11.687 1.48c1.13 1.243.501 3.338-.848 4.355-1.349 1.017-3.145 1.238-4.848 1.391-5.462.492-11.006.669-16.402-.29-8.817-1.565-16.757-6.053-24.328-10.701-.772-.473-1.595-1.014-1.882-1.855-.45-1.316.602-2.63 1.58-3.644l7.702-8.003c5.575-5.79 7.251 1.75 10.232 5.909 2.993 4.175 6.662 8.04 11.65 9.94"></path><path fill="#FE8D23" d="M349.942 253h.117c1.068 0 1.941-.86 1.941-1.91v-7.18c0-1.051-.873-1.91-1.941-1.91h-.117c-1.07 0-1.942.859-1.942 1.91v7.18c0 1.05.873 1.91 1.942 1.91"></path><path fill="#211E20" d="M353 248.333V255l-19.376-.097c-.675-.003-.868-.915-.251-1.187L347.498 248l5.502.333"></path><path fill="#C1C5C1" d="M332.302 255.845h20.396c.167 0 .302-.155.302-.345 0-.189-.135-.345-.302-.345h-20.396c-.166 0-.302.156-.302.345 0 .19.136.345.302.345"></path><path fill="#FE8D23" d="M375.823 243.836l.104-.044c.941-.397 1.339-1.397.886-2.22l-3.102-5.632c-.453-.825-1.594-1.173-2.535-.775l-.103.043c-.94.397-1.34 1.397-.885 2.22l3.1 5.633c.454.824 1.594 1.172 2.535.775"></path><path fill="#211E20" d="M376.977 239l3.023 6.293-18.07 8.64c-.629.3-1.223-.473-.772-1.008l10.548-11.762 5.27-2.163"></path><path fill="#C1C5C1" d="M361.434 253.971l18.395-8.425a.282.282 0 0 0 .141-.384.311.311 0 0 0-.404-.134l-18.396 8.426a.282.282 0 0 0-.14.384.31.31 0 0 0 .404.133"></path><path fill="#F3C7AC" d="M326.537 133.434l4.504 3.33c.565.418 1.348.266 1.739-.34.39-.604.248-1.44-.318-1.858l-4.502-3.33c-.565-.418-1.348-.266-1.739.34-.392.603-.248 1.44.316 1.858"></path><path fill="#F3C7AC" d="M331.098 133.197l1.937 3.324c.242.417.862.596 1.375.399.514-.197.734-.7.49-1.118l-1.935-3.323c-.243-.417-.861-.596-1.375-.398-.513.198-.734.7-.492 1.116"></path><path fill="#B94772" d="M355.141 183L340 214.543 345.965 247h7.8l-2.753-28.8L379 183h-23.859"></path><path fill="#B94772" d="M364.098 172L356 211.89 367.777 241l8.776-7.003-8.677-25.364L382 182.27 364.098 172M345.486 139.652c-1.828-.68-3.512-1.674-5.184-2.663L333.554 133a66.013 66.013 0 0 0-2.175 2.683c-.187.243-.38.512-.379.817.004.38.308.686.592.948 8.345 7.701 17.448 15.776 28.832 17.441 1.154.168 2.447.234 3.362-.468.59-.453.916-1.151 1.192-1.831a27.615 27.615 0 0 0 2.003-11.368c-.02-.562-.102-1.203-.576-1.525-.322-.22-.747-.23-1.14-.21-6.732.336-13.068 2.662-19.779.165"></path><path fill="#D683A3" d="M367.791 130s18.73 13.365 14.62 53L355 182.54s.457-45.626 12.791-52.54"></path><path fill="#D683A3" d="M366 130.735a8.703 8.703 0 0 1 1.137-.735s19.536 13.365 15.248 53l-2.062-.033c3.71-34.38-10.505-48.976-14.323-52.232"></path><path fill="#FE8D23" d="M365.5 134c3.575 0 6.5-3 6.5-6.666v-6.667c0-3.666-2.925-6.667-6.5-6.667-3.576 0-6.5 3.001-6.5 6.667v6.667c0 3.667 2.924 6.666 6.5 6.666"></path><path fill="#7E3E8F" d="M358.275 117.272c-.381.728-.4 1.681.159 2.29.71.777 1.966.711 3.049.676 2.528-.083 5.07.35 7.406 1.262.482.189 1.002.44 1.186.905.113.283.079.6.017.897-.337 1.638-1.453 3.015-2.37 4.44-.916 1.424-1.678 3.121-1.206 4.723.1.335.256.663.517.907.477.44 1.198.519 1.864.558 3.555.206 7.142-.041 10.636-.73.739-.147 1.527-.343 2.014-.896.706-.803.486-2.018.025-2.963a7.897 7.897 0 0 0-2.624-3.028c-1.046-.72-2.278-1.208-3.177-2.089-2.56-2.508-1.491-7.114-4.084-9.591-3.372-3.222-11.338-1.327-13.412 2.64"></path><path fill="#FE8D23" d="M369 122a1 1 0 1 0 2 0 1 1 0 0 0-2 0"></path><path fill="url(#a)" d="M315.186 152.968l-54.98-25.83c-5.4-2.537-7.724-8.993-5.165-14.345l11.301-23.641c2.56-5.353 9.072-7.657 14.471-5.12l54.981 25.83c5.4 2.537 7.724 8.992 5.165 14.345l-11.302 23.64c-2.559 5.354-9.07 7.658-14.471 5.121" transform="translate(3)"></path><path fill="#FFFFFE" d="M294.035 108.281c-2.366 4.99-8.328 7.118-13.317 4.753-4.99-2.364-7.117-8.326-4.753-13.315 2.366-4.99 8.327-7.118 13.316-4.753 4.99 2.364 7.118 8.327 4.754 13.315M326.214 127.619l-25.9-12.048c-2.013-.937-2.88-3.321-1.925-5.3.953-1.976 3.383-2.827 5.397-1.89l25.9 12.047c2.013.938 2.88 3.322 1.926 5.3-.955 1.976-3.384 2.828-5.398 1.891M317.218 143.598L273.314 122c-2.013-.99-2.88-3.51-1.926-5.6.955-2.088 3.381-2.987 5.394-1.997L320.687 136c2.013.99 2.879 3.51 1.925 5.6-.954 2.088-3.38 2.987-5.394 1.998"></path><path fill="#FE8D23" d="M322.422 140.413l4.3 4.207c.54.528 1.4.503 1.91-.057a1.436 1.436 0 0 0-.053-1.975l-4.301-4.208a1.324 1.324 0 0 0-1.91.056 1.436 1.436 0 0 0 .054 1.977"></path><path fill="#FE8D23" d="M326.026 141.037l.77 3.387c.097.425.441.67.765.542.324-.127.51-.578.413-1.003l-.77-3.387c-.097-.425-.44-.669-.765-.543-.325.128-.51.58-.413 1.004"></path><path fill="#D683A3" d="M343.539 150.355c-1.806-.46-3.528-1.183-5.216-1.95A97.467 97.467 0 0 1 328.097 143c-1.656.343-2.425 2.35-1.966 3.908.46 1.56 1.76 2.745 3.025 3.823 4.062 3.459 8.38 6.714 13.268 8.992 7.986 3.723 17.047 4.65 25.91 5.243.904.06 1.89.097 2.629-.404 1.158-.785 1.115-2.412.952-3.76l-1.292-10.637c-.934-7.698-6.85-2.698-11.752-1.096-4.923 1.608-10.197 2.591-15.332 1.286"></path><path fill="#37609D" d="M272 23h-7v-1.101L272 19v4"></path><path fill="#2E5A99" d="M263 23h-2l2-1v1M331 28a12.598 12.598 0 0 0-.367-.11c-2.693-2.755-6.432-4.468-10.55-4.468h-44.145a12.46 12.46 0 0 1 1.958-6.11l14.05-5.186c4.872 1.506 8.47 5.966 8.74 11.295h2.625a15.16 15.16 0 0 0-7.776-12.62l20.14-7.433A5.92 5.92 0 0 1 317.73 3a5.971 5.971 0 0 1 5.603 3.941L331 28m-57.69-4.578H271v-3.566l3.294-1.216a15.14 15.14 0 0 0-.984 4.782"></path><path fill="#BAB4B1" d="M331.807 27.828a17.311 17.311 0 0 0-.614-.656c.141.04.28.081.419.125l.195.531"></path><path fill="#949693" d="M288.983 40c-.899-.218-1.63-.75-1.983-1.439.664.06 1.339.092 2.024.092.853 0 1.547-.556 1.547-1.243 0-.688-.694-1.244-1.547-1.244-.544 0-1.08-.024-1.608-.07.541-.562 1.374-.932 2.317-.967a3.759 3.759 0 0 0-.886-.116c-.39 0-.764.058-1.108.164A3.759 3.759 0 0 1 288.89 35c1.718 0 3.11 1.12 3.11 2.5 0 1.357-1.342 2.46-3.017 2.5"></path><path fill="#80827F" d="M289.061 40c-1.388 0-2.576-.652-3.061-1.574.364.049.733.09 1.105.122.374.688 1.148 1.22 2.1 1.438l.01.002-.154.012m-1.516-3.918c-.365-.03-.726-.07-1.082-.12a3.4 3.4 0 0 1 1.425-.799c.364-.105.76-.163 1.173-.163.33 0 .64.047.939.115-.999.036-1.881.406-2.455.967"></path><path fill="#ABB0AB" d="M289.017 38a15.323 15.323 0 0 1-2.601-.224C279.37 36.55 274 30.426 274 23.08a14.764 14.764 0 0 1 .997-5.35l3.6-1.31a12.178 12.178 0 0 0-1.973 6.66c0 6.033 4.39 11.066 10.163 12.112a12.283 12.283 0 0 0 2.23.2c.724 0 1.312.583 1.312 1.303S289.74 38 289.017 38M304 22.447h-2.623c-.272-5.256-3.867-9.655-8.736-11.14L296.227 10c4.464 2.445 7.546 7.086 7.773 12.447"></path><path fill="url(#a)" d="M325.303 36.35l-64.198 26.213c-3.028 1.236-6.475-.238-7.7-3.292l-9.971-24.853c-1.226-3.054.235-6.533 3.262-7.768l64.2-26.213c3.026-1.236 6.473.238 7.7 3.292l9.97 24.853c1.226 3.055-.235 6.532-3.263 7.768" transform="translate(3)"></path><path fill="#FFFFFE" d="M314.005 15.092L262.392 35.77c-1.628.652-3.502-.132-4.16-1.745-.66-1.612.134-3.465 1.762-4.117L311.607 9.23c1.63-.653 3.502.133 4.161 1.745.659 1.612-.135 3.465-1.763 4.117M317.005 24.092L265.392 44.77c-1.628.653-3.502-.132-4.16-1.745-.66-1.612.134-3.465 1.762-4.118l51.613-20.677c1.63-.652 3.502.132 4.161 1.745.659 1.612-.135 3.465-1.763 4.117M304.025 39.985l-34.677 13.79c-1.613.64-3.466-.131-4.119-1.715-.652-1.583.134-3.404 1.746-4.045l34.678-13.79c1.612-.64 3.464.131 4.117 1.715s-.132 3.404-1.745 4.045"></path><path fill="#B9BBB7" d="M264.5 184c-.275 0-.5-.239-.5-.53v-1.392l1-.078v1.47c0 .291-.225.53-.5.53"></path><path fill="url(#a)" d="M266.126 215.045l-63.497 6.923c-2.995.327-5.681-1.891-6-4.953l-2.598-24.924c-.32-3.062 1.85-5.809 4.843-6.137l63.498-6.922c2.994-.327 5.68 1.891 6 4.953l2.597 24.924c.32 3.062-1.85 5.809-4.843 6.136" transform="translate(3)"></path><path fill="#FFFFFE" d="M262.364 192.22l-51.104 5.762c-1.612.182-3.072-1.064-3.243-2.77-.173-1.707 1.006-3.25 2.618-3.432l51.104-5.762c1.612-.182 3.073 1.065 3.244 2.77.173 1.706-1.007 3.25-2.62 3.433M262.363 201.22l-51.101 5.762c-1.613.183-3.074-1.065-3.245-2.77-.172-1.706 1.007-3.251 2.62-3.433l51.101-5.761c1.613-.183 3.073 1.065 3.245 2.77.172 1.706-1.007 3.25-2.62 3.433M220.826 213.736a4.499 4.499 0 1 1-8.651-2.472 4.499 4.499 0 0 1 8.65 2.472M231.826 212.737a4.498 4.498 0 1 1-8.653-2.473 4.498 4.498 0 0 1 8.653 2.473M242.825 210.737a4.499 4.499 0 1 1-8.65-2.474 4.499 4.499 0 0 1 8.65 2.474"></path><path fill="#B9BBB7" d="M99.226 73h-6.623c-.331 0-.603-.225-.603-.5s.272-.5.603-.5H100c-.244.341-.502.675-.774 1"></path><path fill="#949693" d="M102.658 68h-4.387C97.02 68 96 66.875 96 65.5s1.022-2.5 2.27-2.5H104a27.126 27.126 0 0 1-1.342 5"></path><path fill="#FFFFFE" stroke="#DCDED9" stroke-width="3" d="M103 57c0 12.702-10.297 23-23 23-12.702 0-23-10.298-23-23 0-12.703 10.298-23 23-23 12.703 0 23 10.297 23 23"></path><path fill="#4AAE4C" d="M91.313 50.689a2.357 2.357 0 0 0-3.33 0l-8.606 8.62-4.36-4.368a2.36 2.36 0 0 0-3.33 0 2.37 2.37 0 0 0 0 3.337l6.024 6.035a2.346 2.346 0 0 0 1.666.687c.604 0 1.209-.23 1.666-.687l10.27-10.288a2.367 2.367 0 0 0 0-3.336"></path><path fill="#FFFFFE" d="M204.672 314a8.31 8.31 0 0 0-.67 1.452l-.282-.24c-.04-.298-.21-.502-.398-.466-.2.039-.343.338-.32.67.024.33.206.566.406.527l.11-.052.273.235a11.04 11.04 0 0 0-.326 1.742l.451.132c.14-1.305.514-2.506 1.084-3.471l-.328-.529M210.35 312.137c-.172 0-.344.004-.514.01l-.074-.377c.189-.09.299-.234.267-.388-.045-.237-.405-.407-.801-.379-.397.028-.68.243-.634.48.03.152.191.278.409.34l.073.376c-.72.07-1.414.2-2.076.389l.33.412a11 11 0 0 1 3.02-.406c.5 0 1.002.032 1.487.095l.163-.446a12.89 12.89 0 0 0-1.65-.106M215.382 314.531a.682.682 0 0 0 .613-.754.698.698 0 0 0-.783-.59.686.686 0 0 0-.617.683l-.485.408a8.804 8.804 0 0 0-1.64-1.278l-.47.719c1.32.802 2.354 1.936 2.986 3.281l.804-.35a8.222 8.222 0 0 0-1.097-1.733l.468-.394.221.008M209.894 320.612c-.307.021-.615.031-.919.031-.698 0-1.376-.053-1.967-.159a6.255 6.255 0 0 1-1.008-.26c.83 1.653 2.436 2.776 4.276 2.776 2.268 0 4.178-1.702 4.724-4-.541.399-1.195.733-1.952.997-.936.327-2.027.54-3.154.615"></path><path fill="#FFFFFE" d="M211.834 317.924c-.679 0-1.23-.535-1.23-1.194 0-.66.551-1.196 1.23-1.196.678 0 1.23.537 1.23 1.196 0 .659-.552 1.194-1.23 1.194zm-4.287.797c-.924 0-1.674-.728-1.674-1.624 0-.896.75-1.625 1.674-1.625.922 0 1.673.73 1.673 1.625 0 .896-.75 1.624-1.673 1.624zm1.954-5.721c-3.034 0-5.501 2.342-5.501 5.22 0 .374.042.746.123 1.108.61.423 2.448.78 4.84.641 2.605-.152 4.793-.84 6.037-1.895a5.332 5.332 0 0 0-.04-.511c-.345-2.602-2.692-4.563-5.46-4.563zM223 314.69c-.27-.097-.734-.257-1.258-.198-.501.057-.768.283-.768.835v.72H223v1.424h-2.026V322h-1.756v-4.529H218v-1.424h1.218v-.738c0-1.394.814-2.309 2.335-2.309.584 0 1.052.1 1.446.255v1.434M227.978 317.539a4.07 4.07 0 0 0-.528-.038c-.897 0-1.513.447-1.513 1.314V322H224v-5.843h1.878v.639c.452-.55 1.143-.796 2.026-.796.415 0 .85.103 1.096.274l-1.022 1.265"></path><path fill="#FFFFFE" d="M229.686 317.875h2.677c-.148-.85-.617-1.331-1.317-1.331-.767 0-1.217.508-1.36 1.331zm4.314.618c0 .207-.013.453-.031.604h-4.29c.175.96.787 1.38 1.556 1.38.523 0 1.091-.233 1.53-.638l.954 1.152c-.688.694-1.562 1.009-2.579 1.009-1.854 0-3.14-1.386-3.14-3.48 0-2.093 1.249-3.52 3.06-3.52 1.741 0 2.934 1.422 2.94 3.493zM236.686 317.875h2.679c-.15-.85-.62-1.331-1.319-1.331-.767 0-1.217.508-1.36 1.331zm4.314.618c0 .207-.012.453-.031.604h-4.29c.175.96.787 1.38 1.556 1.38.523 0 1.092-.233 1.53-.638l.954 1.152c-.687.694-1.56 1.009-2.578 1.009-1.855 0-3.141-1.386-3.141-3.48 0-2.093 1.249-3.52 3.06-3.52 1.741 0 2.934 1.422 2.94 3.493zM243.705 319.29c0 .988.697 1.723 1.719 1.723 1.063 0 1.725-.768 1.725-1.722 0-.956-.662-1.724-1.725-1.724-1.022 0-1.719.736-1.719 1.724zm5.295 0c0 1.878-1.394 3.29-3.237 3.29-.899 0-1.533-.328-1.968-.812V325H242v-8.832h1.761v.69c.435-.51 1.076-.858 1.994-.858 1.85 0 3.245 1.412 3.245 3.29zM249.222 322h1.569v-5.998h-1.569V322zm1.778-7.96c0 .582-.438 1.027-1.002 1.027-.565 0-.998-.445-.998-1.028 0-.58.433-1.039.998-1.039.564 0 1.002.458 1.002 1.04zM254.65 318.1l2.307-2.156h2.025l-2.973 2.85L259 322h-2.03l-2.32-2.45V322H253v-9h1.65v5.1M138.006 320.315v-2.58c-.357-.496-1.125-.92-1.92-.92-1.284 0-2.053.943-2.053 2.205 0 1.26.769 2.19 2.054 2.19.794 0 1.562-.4 1.92-.895zm0 1.543v-.848a2.805 2.805 0 0 1-2.158.99c-1.669 0-2.848-1.131-2.848-2.98 0-1.816 1.166-2.994 2.848-2.994.86 0 1.642.378 2.158 1.002V314H139v7.858h-.994zM143.025 316.734c-1.314 0-1.966 1.03-2.017 1.905h4.047c-.012-.853-.625-1.905-2.03-1.905zm-3.025 2.26c0-1.657 1.276-2.994 3.038-2.994 1.865 0 2.962 1.35 2.962 3.065v.225h-4.992c.077 1.076.894 1.976 2.222 1.976.702 0 1.417-.26 1.902-.722l.46.58c-.613.568-1.443.876-2.452.876-1.826 0-3.14-1.22-3.14-3.006zM147 321.1l.506-.638c.416.438 1.209.816 2.065.816.962 0 1.481-.414 1.481-.982 0-1.384-3.884-.532-3.884-2.652 0-.886.845-1.644 2.339-1.644 1.065 0 1.818.367 2.325.829l-.455.615c-.376-.414-1.065-.722-1.87-.722-.858 0-1.39.39-1.39.9 0 1.254 3.883.425 3.883 2.65 0 .96-.844 1.728-2.468 1.728-1.026 0-1.895-.284-2.532-.9M153.128 322h.744v-5.917h-.744V322zm-.128-7.375c0-.343.228-.625.495-.625.277 0 .505.282.505.625s-.228.611-.505.611c-.267 0-.495-.268-.495-.611zM161.004 321.121v-2.442c-.344-.487-1.115-.904-1.911-.904-1.288 0-2.057.893-2.057 2.13 0 1.229.77 2.13 2.057 2.13.796 0 1.567-.427 1.911-.914zm-4.645 3.046l.505-.65c.53.557 1.168.765 2.083.765 1.062 0 2.057-.451 2.057-1.679v-.799a2.8 2.8 0 0 1-2.15.996c-1.672 0-2.854-1.088-2.854-2.894 0-1.795 1.168-2.906 2.854-2.906.863 0 1.633.37 2.15.984v-.845H162v5.43c0 1.852-1.486 2.431-3.053 2.431-1.088 0-1.831-.185-2.588-.833zM168.065 322v-3.83c0-1.03-.536-1.358-1.346-1.358-.737 0-1.435.436-1.784.91V322H164v-5.854h.935v.848c.424-.485 1.247-.994 2.145-.994 1.259 0 1.92.618 1.92 1.89V322h-.935M173.025 316.734c-1.314 0-1.966 1.03-2.017 1.905h4.047c-.013-.853-.626-1.905-2.03-1.905zm-3.025 2.26c0-1.657 1.276-2.994 3.038-2.994 1.864 0 2.962 1.35 2.962 3.065v.225h-4.992c.077 1.076.894 1.976 2.222 1.976.702 0 1.416-.26 1.902-.722l.46.58c-.613.568-1.443.876-2.452.876-1.826 0-3.14-1.22-3.14-3.006zM182.007 320.315v-2.58c-.358-.496-1.126-.92-1.92-.92-1.286 0-2.053.943-2.053 2.205 0 1.26.767 2.19 2.052 2.19.795 0 1.563-.4 1.921-.895zm0 1.543v-.848a2.807 2.807 0 0 1-2.16.99c-1.668 0-2.847-1.131-2.847-2.98 0-1.816 1.166-2.994 2.848-2.994.86 0 1.643.378 2.16 1.002V314H183v7.858h-.993zM188.9 321.21c1.298 0 2.067-.93 2.067-2.19 0-1.262-.769-2.205-2.066-2.205-.782 0-1.564.424-1.907.92v2.58c.343.495 1.125.895 1.907.895zm-2.9.648V314h.994v3.028a2.765 2.765 0 0 1 2.158-1.002c1.669 0 2.848 1.178 2.848 2.994 0 1.849-1.179 2.98-2.848 2.98-.9 0-1.682-.413-2.158-.99v.848H186zM194.707 324.117a1.5 1.5 0 0 0 .508.094c.409 0 .682-.13.893-.601l.396-.86L194 317h1.005l1.995 4.666 1.984-4.666H200l-3 6.846c-.36.824-.966 1.143-1.76 1.154-.198 0-.508-.035-.681-.082l.148-.801"></path></g></svg> 